<?xml version="1.0" encoding="UTF-8"?>
<svg version="1.1" xmlns="http://www.w3.org/2000/svg" width="512" height="512">
<path d="M0 0 C1.34485044 -0.00679031 2.68969156 -0.01570132 4.03451538 -0.02655029 C7.65868168 -0.04918328 11.28212971 -0.04057473 14.90630722 -0.02465487 C18.71595816 -0.01191198 22.52555148 -0.02375909 26.33520508 -0.03158569 C32.73041721 -0.04065805 39.12533974 -0.0287582 45.52050781 -0.00488281 C52.89274081 0.02232411 60.2642822 0.01350821 67.63649845 -0.01401484 C73.98930522 -0.0367742 80.34190494 -0.03987284 86.69473934 -0.02682149 C90.4788692 -0.01906426 94.26267498 -0.01788154 98.04678345 -0.03450394 C101.60615709 -0.04904969 105.16464739 -0.03874609 108.72392654 -0.01003265 C110.63750272 -0.00037078 112.55115446 -0.01503555 114.46469116 -0.03067017 C123.09553914 0.07419221 130.01420049 1.64154631 136.49528503 7.62125206 C142.53451522 14.00662958 144.51467279 19.25606807 144.85546875 27.95947266 C144.49022841 40.81845146 137.87785141 47.67182913 129.71875 56.85009766 C126.6966292 60.2513807 123.71647851 63.67118969 120.85546875 67.20947266 C120.10265625 68.11826172 119.34984375 69.02705078 118.57421875 69.96337891 C110.4223071 82.29810707 110.67842471 95.35692262 110.8671875 109.57666016 C110.87653301 111.66414537 110.88364088 113.75164167 110.8886261 115.83914185 C110.90755912 121.28744714 110.95653946 126.73506756 111.012146 132.18310547 C111.06363658 137.76081075 111.08620334 143.33862857 111.11132812 148.91650391 C111.16467341 159.82695821 111.249817 170.7369081 111.35546875 181.64697266 C112.11690186 181.66155518 112.87833496 181.6761377 113.6628418 181.69116211 C117.12338763 181.76577807 120.5829832 181.86239524 124.04296875 181.95947266 C125.84024414 181.99331055 125.84024414 181.99331055 127.67382812 182.02783203 C128.83076172 182.06328125 129.98769531 182.09873047 131.1796875 182.13525391 C132.24276123 182.16143799 133.30583496 182.18762207 134.40112305 182.21459961 C137.80724776 182.71309121 139.66360029 183.50633405 142.35546875 185.64697266 C143.34546875 188.12197266 143.34546875 188.12197266 144.35546875 190.64697266 C150.62546875 190.64697266 156.89546875 190.64697266 163.35546875 190.64697266 C163.68546875 188.99697266 164.01546875 187.34697266 164.35546875 185.64697266 C168.80385278 181.36192911 174.99484412 182.16987821 180.78125 182.13525391 C181.88397751 182.1173027 182.98670502 182.0993515 184.12284851 182.08085632 C187.63784994 182.02676261 191.15271562 181.99285975 194.66796875 181.95947266 C197.05405534 181.92629885 199.44012402 181.89180914 201.82617188 181.85595703 C207.66914911 181.77103659 213.51214394 181.70268257 219.35546875 181.64697266 C219.42518402 169.9720627 219.47838903 158.29720282 219.51090527 146.62212658 C219.52651667 141.20007629 219.54767186 135.77816912 219.58178711 130.35620117 C219.61454245 125.11718158 219.63235575 119.87829909 219.64010048 114.63918495 C219.64561506 112.64704546 219.65638324 110.6549129 219.67265892 108.66283226 C219.81641176 90.3277558 217.78559917 76.04711527 204.7578125 62.21728516 C184.66451696 40.71909253 184.66451696 40.71909253 185.0390625 26.11181641 C186.00743883 18.56804523 188.92881662 11.94441879 194.35546875 6.64697266 C199.79711814 2.56573561 204.30180106 0.40456346 211.12846375 0.37281799 C212.28203873 0.36284286 213.43561371 0.35286774 214.62414551 0.34259033 C215.8808606 0.34192566 217.13757568 0.34126099 218.43237305 0.34057617 C219.77647866 0.33294997 221.12057992 0.32452167 222.4646759 0.31535339 C226.1095716 0.29344222 229.75438342 0.28461365 233.39933753 0.27952695 C235.68009729 0.27587825 237.96083526 0.26963542 240.24158669 0.26252556 C248.20883774 0.23803923 256.1760238 0.22498171 264.14331055 0.22143555 C271.55230624 0.21780468 278.96088658 0.18793979 286.36975545 0.14603096 C292.74364715 0.11124968 299.11740178 0.09588573 305.49138767 0.09518951 C309.29241804 0.09439912 313.0930254 0.08577152 316.89395714 0.05719185 C320.47369677 0.03087714 324.05266683 0.02887928 327.63245964 0.04484749 C329.55807234 0.04750592 331.48367096 0.02556794 333.40914917 0.00265503 C342.0742231 0.07510904 348.99024981 1.61503679 355.49473095 7.62290287 C361.48369035 13.94767918 364.32616704 20.95901435 364.35546875 29.64697266 C363.44577618 40.89947426 356.42520732 48.80533292 349.015625 56.72900391 C336.87496646 70.04629015 330.45895655 81.80256563 329.9296875 100.05322266 C329.27935491 104.12333136 328.37332057 105.86948071 325.35546875 108.64697266 C324.03546875 108.64697266 322.71546875 108.64697266 321.35546875 108.64697266 C321.35546875 114.91697266 321.35546875 121.18697266 321.35546875 127.64697266 C323.33546875 128.30697266 325.31546875 128.96697266 327.35546875 129.64697266 C329.63095008 132.63211796 329.60301108 135.42987549 329.59597778 139.10125732 C329.60010178 140.76288658 329.60010178 140.76288658 329.60430908 142.45808411 C329.59711853 143.66864975 329.58992798 144.87921539 329.58251953 146.12646484 C329.58281158 147.40476669 329.58310364 148.68306854 329.58340454 150.00010681 C329.58397826 153.50188068 329.57222082 157.00351749 329.55825663 160.50525951 C329.54575254 164.16611727 329.54457902 167.82697819 329.54220581 171.487854 C329.53599009 178.41865589 329.51957804 185.34939467 329.49950683 192.28016877 C329.47715068 200.17127542 329.46615512 208.06238509 329.45611596 215.95351553 C329.43521189 232.18470485 329.40003413 248.4158307 329.35546875 264.64697266 C329.98025116 264.94989731 330.60503357 265.25282196 331.24874878 265.56492615 C333.379944 266.65954355 334.94323463 267.85446551 336.73828125 269.43212891 C337.65287109 270.22780273 337.65287109 270.22780273 338.5859375 271.03955078 C339.21113281 271.590625 339.83632813 272.14169922 340.48046875 272.70947266 C341.7314836 273.80634006 342.9840188 274.9014766 344.23828125 275.99462891 C344.78887207 276.47939697 345.33946289 276.96416504 345.90673828 277.46362305 C347.36524612 278.7433045 347.36524612 278.7433045 349.35546875 279.64697266 C349.37005127 278.88553955 349.38463379 278.12410645 349.3996582 277.33959961 C349.47427416 273.87905378 349.57089134 270.41945821 349.66796875 266.95947266 C349.69052734 265.76128906 349.71308594 264.56310547 349.73632812 263.32861328 C349.77177734 262.17167969 349.80722656 261.01474609 349.84375 259.82275391 C349.86993408 258.75968018 349.89611816 257.69660645 349.9230957 256.60131836 C350.59294439 252.02433421 352.46107409 249.45192785 355.85546875 246.39697266 C361.61934841 242.36225689 368.40125745 243.42416185 375.16796875 243.39697266 C377.07545898 243.36603516 377.07545898 243.36603516 379.02148438 243.33447266 C380.25189453 243.32931641 381.48230469 243.32416016 382.75 243.31884766 C383.87253174 243.30950195 384.99506348 243.30015625 386.15161133 243.29052734 C391.07879535 243.83870144 394.31701215 245.52431687 397.66796875 249.14697266 C400.44539546 253.26167889 400.45133118 256.29430911 400.35449219 261.14697266 C400.33172802 262.50625755 400.30951697 263.86555179 400.28778076 265.22485352 C400.2749984 265.94478485 400.26221603 266.66471619 400.24904633 267.40646362 C400.17828886 272.04157456 400.17223875 276.67731774 400.15519333 281.31288147 C400.13659087 285.37716519 400.09493631 289.43863052 400.00244141 293.50195312 C399.9140308 297.44224036 399.89035529 301.37839938 399.90882111 305.31958008 C399.90455197 306.81234016 399.87758825 308.30523266 399.82634735 309.79711914 C399.4558363 318.00867523 399.4558363 318.00867523 402.64164734 325.3416748 C406.17975358 328.95826099 410.23231082 331.74372031 414.35546875 334.64697266 C419.58496115 339.68880782 422.37176457 344.12200348 422.73046875 351.39697266 C422.57221885 357.65249814 420.87156576 362.74706423 416.7421875 367.50634766 C413.00010156 370.99121705 410.44991814 371.88250257 405.35546875 372.64697266 C405.35823413 373.29504411 405.36099951 373.94311556 405.36384869 374.61082554 C405.43015802 390.39403789 405.47977336 406.17720166 405.51090527 421.96051884 C405.52636134 429.5932777 405.54742667 437.22594347 405.58178711 444.85864258 C405.61172816 451.51281833 405.63105291 458.16692664 405.63773423 464.82116789 C405.64163856 468.34319022 405.65078772 471.86501966 405.67265892 475.38698006 C405.69690048 479.32272021 405.69743572 483.2582732 405.69604492 487.1940918 C405.71222366 488.93765709 405.71222366 488.93765709 405.72872925 490.71644592 C405.70292508 497.4629588 405.4780174 503.10331694 400.8203125 508.38916016 C396.22587995 511.79679555 394.14046075 512.7720095 388.44729614 512.8008728 C387.18820435 512.80947327 385.92911255 512.81807373 384.63186646 512.82693481 C383.22869914 512.83137015 381.82553139 512.83566849 380.42236328 512.83984375 C378.95074265 512.8477437 377.47912396 512.85601258 376.00750732 512.86462402 C371.16778415 512.89085251 366.32805227 512.90615063 361.48828125 512.92041016 C359.82357655 512.92576915 358.15887191 512.93114665 356.49416733 512.93654251 C349.57136599 512.9581708 342.64856701 512.97690899 335.72574043 512.9881649 C325.79632918 513.0044144 315.86730861 513.03761666 305.93804467 513.09456575 C298.96050477 513.13322477 291.98306955 513.15279267 285.00542533 513.15808547 C280.83565509 513.16174399 276.66630145 513.17381794 272.49664688 513.2061882 C268.57474768 513.23619894 264.65351867 513.2426062 260.73152924 513.23080444 C259.2915561 513.23058313 257.85155249 513.23893623 256.41168594 513.25645828 C254.44712352 513.2790657 252.48225864 513.2678964 250.51760864 513.25497437 C249.41774187 513.25828451 248.3178751 513.26159466 247.18467903 513.26500511 C244.35546875 512.64697266 244.35546875 512.64697266 241.97033501 510.23397255 C240.35546875 507.64697266 240.35546875 507.64697266 240.35546875 505.64697266 C234.08546875 505.64697266 227.81546875 505.64697266 221.35546875 505.64697266 C221.02546875 507.29697266 220.69546875 508.94697266 220.35546875 510.64697266 C215.83239581 513.66235462 211.42916061 513.05478664 206.10546875 513.08447266 C205.08066406 513.11734375 204.05585938 513.15021484 203 513.18408203 C197.2944961 513.22446848 193.35285415 512.8308433 188.76660156 509.3112793 C183.55217771 503.16132646 183.91373387 496.88306106 183.9230957 489.21582031 C183.90780823 487.34182053 183.90780823 487.34182053 183.89221191 485.42996216 C183.86724961 482.01707784 183.85536615 478.60462346 183.84935784 475.1916852 C183.8399577 471.62018552 183.81375304 468.04880949 183.78935242 464.47738647 C183.74572869 457.72024433 183.71715646 450.96312624 183.69402903 444.20588624 C183.66695516 436.51053806 183.62304505 428.81531452 183.57774031 421.12005544 C183.4849532 405.29575864 183.41324539 389.47143836 183.35546875 373.64697266 C182.66839844 373.32229004 181.98132813 372.99760742 181.2734375 372.66308594 C179.92185547 372.00928955 179.92185547 372.00928955 178.54296875 371.34228516 C177.20298828 370.70057373 177.20298828 370.70057373 175.8359375 370.04589844 C171.13788931 367.39631024 169.11667524 364.10710379 167.546875 359.03369141 C165.89678094 351.62364169 166.37290955 346.52948442 169.85546875 339.70947266 C175.72520093 332.51905073 183.25130984 326.84765984 190.4375 321.02978516 C193.60965458 318.43940458 196.7355555 315.79975035 199.85546875 313.14697266 C204.05099225 309.58985768 208.25027605 306.03783202 212.48046875 302.52197266 C213.34929687 301.79751953 214.218125 301.07306641 215.11328125 300.32666016 C217.35546875 298.64697266 217.35546875 298.64697266 220.35546875 297.64697266 C220.02546875 293.35697266 219.69546875 289.06697266 219.35546875 284.64697266 C183.71546875 284.64697266 148.07546875 284.64697266 111.35546875 284.64697266 C111.26530097 307.69812672 111.26530097 307.69812672 111.20470715 330.74930573 C111.18810291 338.99519553 111.16704457 347.24099399 111.12915039 355.48681641 C111.09915556 362.01686773 111.07987192 368.54685001 111.07320327 375.07696831 C111.06930799 378.53145978 111.06021714 381.98575383 111.03827858 385.44018173 C111.01392962 389.30586061 111.0135052 393.17135013 111.01489258 397.03710938 C111.00410675 398.16999893 110.99332092 399.30288849 110.98220825 400.47010803 C111.04515034 416.7324528 117.92566222 427.14494941 128.37963867 438.95581055 C137.91928558 449.74588586 145.05729313 457.92852989 144.671875 472.90869141 C144.02791324 480.51698037 140.8073164 486.31627717 135.35546875 491.64697266 C129.2473114 495.686238 124.23055321 497.76478367 116.88581848 497.78741455 C115.77424377 497.79312469 114.66266907 497.79883484 113.51741028 497.80471802 C112.30228256 497.80583588 111.08715485 497.80695374 109.83520508 497.80810547 C107.91017654 497.81555283 107.91017654 497.81555283 105.94625854 497.82315063 C102.4274088 497.83625313 98.90857812 497.84271571 95.3897078 497.84716129 C93.1885358 497.85009628 90.98736896 497.85420195 88.78619957 497.85866547 C81.89147969 497.87233646 74.99677165 497.88200433 68.10203916 497.88586736 C60.15791309 497.89034339 52.21395949 497.90787169 44.26988584 497.93686795 C38.12024265 497.95853071 31.97064781 497.96857413 25.8209669 497.96990848 C22.1525224 497.97095348 18.48424009 497.97679563 14.81583595 497.99472809 C10.71802041 498.01436999 6.62056261 498.00990157 2.52270508 498.00341797 C1.31769852 498.01263275 0.11269196 498.02184753 -1.12882996 498.03134155 C-11.69808981 497.97905125 -18.93956578 496.18806559 -26.6953125 488.83837891 C-32.51892141 482.29119534 -34.03169626 475.0817481 -33.91796875 466.51806641 C-32.98289745 456.69981779 -25.99470866 449.46704115 -19.76953125 442.35400391 C-7.24162328 428.02114407 0.43387324 415.89380751 0.53125 396.45166016 C0.55442877 394.66649186 0.57854528 392.88133554 0.60351562 391.09619141 C0.63872808 388.30037146 0.66804977 385.50500001 0.68139648 382.70898438 C0.69684759 379.99767128 0.73700811 377.28763614 0.78125 374.57666016 C0.77934158 373.74117645 0.77743317 372.90569275 0.77546692 372.04489136 C0.85620229 368.22052448 0.91618239 366.25492967 3.20385742 363.08886719 C5.35546875 361.64697266 5.35546875 361.64697266 8.35546875 361.64697266 C8.35546875 355.37697266 8.35546875 349.10697266 8.35546875 342.64697266 C6.70546875 341.98697266 5.05546875 341.32697266 3.35546875 340.64697266 C0.97730802 338.26881193 1.10497026 337.80689897 1.10213566 334.5769062 C1.09652026 333.71992579 1.09090487 332.86294537 1.08511931 331.97999585 C1.0891004 331.03294274 1.09308149 330.08588963 1.09718323 329.11013794 C1.09350752 328.10825845 1.08983182 327.10637895 1.08604473 326.07413948 C1.07601254 322.69488331 1.08022598 319.31579002 1.08422852 315.93652344 C1.07984425 313.52223026 1.0745432 311.1079386 1.06838989 308.69364929 C1.05686185 303.48206152 1.05123598 298.27050168 1.0505085 293.05890274 C1.04918353 285.51067754 1.03407622 277.96252662 1.01501333 270.41432761 C0.98414251 258.15139036 0.95999415 245.88845122 0.94213867 233.62548828 C0.94106599 232.89108516 0.93999331 232.15668204 0.93888813 231.40002428 C0.92708401 223.21808016 0.91687816 215.03613529 0.90844727 206.85418701 C0.90537378 203.89351398 0.9022849 200.93284096 0.89916992 197.97216797 C0.89840458 197.24169035 0.89763924 196.51121272 0.89685071 195.75859942 C0.88374364 183.55431325 0.85906422 171.35008046 0.82542652 159.14583385 C0.8051877 151.62342337 0.79484006 144.10112728 0.79741573 136.57868938 C0.79857851 130.80201994 0.7843576 125.02546666 0.76460648 119.24883461 C0.75902322 116.88664585 0.7585067 114.5244386 0.76354408 112.16224861 C0.81006098 87.78478475 -3.71376224 73.68696542 -20.10400391 55.37158203 C-28.22986754 46.27473565 -34.56635806 38.10208542 -34.02734375 25.38134766 C-32.93800296 17.60034199 -29.55110312 10.83786367 -23.64453125 5.64697266 C-16.01392999 0.46995147 -9.02612594 -0.07374825 0 0 Z " fill="#96C0FE" transform="translate(61.64453125,-0.64697265625)"/>
<path d="M0 0 C2.10118878 3.13073743 2.24762335 5.7406105 2.24050903 9.45428467 C2.24463303 11.11591393 2.24463303 11.11591393 2.24884033 12.81111145 C2.24164978 14.02167709 2.23445923 15.23224274 2.22705078 16.47949219 C2.22734283 17.75779404 2.22763489 19.03609589 2.22793579 20.35313416 C2.22850951 23.85490803 2.21675207 27.35654483 2.20278788 30.85828686 C2.19028379 34.51914462 2.18911027 38.18000553 2.18673706 41.84088135 C2.18052134 48.77168324 2.16410929 55.70242201 2.14403808 62.63319612 C2.12168193 70.52430277 2.11068637 78.41541244 2.10064721 86.30654287 C2.07974314 102.53773219 2.04456538 118.76885804 2 135 C2.62478241 135.30292465 3.24956482 135.6058493 3.89328003 135.91795349 C6.02447525 137.0125709 7.58776588 138.20749286 9.3828125 139.78515625 C10.29740234 140.58083008 10.29740234 140.58083008 11.23046875 141.39257812 C11.85566406 141.94365234 12.48085938 142.49472656 13.125 143.0625 C14.37601485 144.1593674 15.62855005 145.25450394 16.8828125 146.34765625 C17.70869873 147.07480835 17.70869873 147.07480835 18.55126953 147.81665039 C20.00977737 149.09633185 20.00977737 149.09633185 22 150 C22.02187378 148.85785034 22.02187378 148.85785034 22.04418945 147.69262695 C22.11880541 144.23208112 22.21542259 140.77248555 22.3125 137.3125 C22.33505859 136.11431641 22.35761719 134.91613281 22.38085938 133.68164062 C22.41630859 132.52470703 22.45175781 131.36777344 22.48828125 130.17578125 C22.51446533 129.11270752 22.54064941 128.04963379 22.56762695 126.9543457 C23.23747564 122.37736155 25.10560534 119.8049552 28.5 116.75 C34.26387966 112.71528424 41.0457887 113.7771892 47.8125 113.75 C49.08416016 113.729375 50.35582031 113.70875 51.66601562 113.6875 C52.89642578 113.68234375 54.12683594 113.6771875 55.39453125 113.671875 C56.51706299 113.6625293 57.63959473 113.65318359 58.79614258 113.64355469 C63.7233266 114.19172878 66.9615434 115.87734421 70.3125 119.5 C73.08992671 123.61470623 73.09586243 126.64733646 72.99902344 131.5 C72.97625927 132.8592849 72.95404822 134.21857914 72.93231201 135.57788086 C72.91952965 136.29781219 72.90674728 137.01774353 72.89357758 137.75949097 C72.82282011 142.3946019 72.81677 147.03034509 72.79972458 151.66590881 C72.78112212 155.73019254 72.73946756 159.79165786 72.64697266 163.85498047 C72.55856205 167.79526771 72.53488654 171.73142672 72.55335236 175.67260742 C72.54908322 177.1653675 72.5221195 178.65826001 72.4708786 180.15014648 C72.10036755 188.36170257 72.10036755 188.36170257 75.28617859 195.69470215 C78.82428483 199.31128834 82.87684207 202.09674765 87 205 C92.2294924 210.04183517 95.01629582 214.47503082 95.375 221.75 C95.2167501 228.00552548 93.51609701 233.10009158 89.38671875 237.859375 C85.64463281 241.34424439 83.09444939 242.23552992 78 243 C78.00276538 243.64807145 78.00553076 244.2961429 78.00837994 244.96385288 C78.07468927 260.74706523 78.12430461 276.530229 78.15543652 292.31354618 C78.17089259 299.94630505 78.19195792 307.57897082 78.22631836 315.21166992 C78.25625941 321.86584567 78.27558416 328.51995399 78.28226548 335.17419523 C78.28616981 338.69621756 78.29531897 342.21804701 78.31719017 345.7400074 C78.34143173 349.67574755 78.34196697 353.61130055 78.34057617 357.54711914 C78.35675491 359.29068443 78.35675491 359.29068443 78.3732605 361.06947327 C78.34745633 367.81598614 78.12254865 373.45634428 73.46484375 378.7421875 C68.8704112 382.1498229 66.784992 383.12503685 61.09182739 383.15390015 C59.8327356 383.16250061 58.5736438 383.17110107 57.27639771 383.17996216 C55.87323039 383.18439749 54.47006264 383.18869584 53.06689453 383.19287109 C51.5952739 383.20077104 50.12365521 383.20903993 48.65203857 383.21765137 C43.8123154 383.24387986 38.97258352 383.25917797 34.1328125 383.2734375 C32.4681078 383.27879649 30.80340316 383.284174 29.13869858 383.28956985 C22.21589724 383.31119815 15.29309826 383.32993633 8.37027168 383.34119225 C-1.55913957 383.35744174 -11.48816014 383.39064401 -21.41742408 383.44759309 C-28.39496398 383.48625211 -35.3723992 383.50582001 -42.35004342 383.51111281 C-46.51981366 383.51477134 -50.6891673 383.52684529 -54.85882187 383.55921555 C-58.78072107 383.58922628 -62.70195008 383.59563355 -66.62393951 383.58383179 C-68.06391265 383.58361047 -69.50391626 383.59196357 -70.94378281 383.60948563 C-72.90834523 383.63209304 -74.87321011 383.62092374 -76.83786011 383.60800171 C-77.93772688 383.61131186 -79.03759365 383.614622 -80.17078972 383.61803246 C-83 383 -83 383 -85.38513374 380.58699989 C-87 378 -87 378 -87 376 C-93.27 376 -99.54 376 -106 376 C-106.33 377.65 -106.66 379.3 -107 381 C-111.52307294 384.01538196 -115.92630814 383.40781399 -121.25 383.4375 C-122.27480469 383.47037109 -123.29960937 383.50324219 -124.35546875 383.53710938 C-130.06097265 383.57749582 -134.0026146 383.18387065 -138.58886719 379.66430664 C-143.80329104 373.5143538 -143.44173488 367.2360884 -143.43237305 359.56884766 C-143.44766052 357.69484787 -143.44766052 357.69484787 -143.46325684 355.7829895 C-143.48821914 352.37010518 -143.5001026 348.95765081 -143.50611091 345.54471254 C-143.51551105 341.97321286 -143.54171571 338.40183684 -143.56611633 334.83041382 C-143.60974006 328.07327167 -143.63831229 321.31615358 -143.66143972 314.55891359 C-143.68851359 306.8635654 -143.7324237 299.16834187 -143.77772844 291.47308278 C-143.87051555 275.64878598 -143.94222336 259.8244657 -144 244 C-145.03060547 243.51297607 -145.03060547 243.51297607 -146.08203125 243.01611328 C-146.98308594 242.58024902 -147.88414062 242.14438477 -148.8125 241.6953125 C-149.70582031 241.26750488 -150.59914062 240.83969727 -151.51953125 240.39892578 C-156.21757944 237.74933758 -158.23879351 234.46013113 -159.80859375 229.38671875 C-161.45868781 221.97666903 -160.9825592 216.88251176 -157.5 210.0625 C-151.63026782 202.87207807 -144.10415891 197.20068719 -136.91796875 191.3828125 C-133.74581417 188.79243192 -130.61991325 186.1527777 -127.5 183.5 C-123.3044765 179.94288503 -119.1051927 176.39085937 -114.875 172.875 C-114.00617188 172.15054688 -113.13734375 171.42609375 -112.2421875 170.6796875 C-110 169 -110 169 -107 168 C-107.33 163.71 -107.66 159.42 -108 155 C-143.64 155 -179.28 155 -216 155 C-216.09016778 178.05115407 -216.09016778 178.05115407 -216.1507616 201.10233307 C-216.16736584 209.34822288 -216.18842418 217.59402134 -216.22631836 225.83984375 C-216.25631319 232.36989507 -216.27559683 238.89987736 -216.28226548 245.42999566 C-216.28616076 248.88448712 -216.29525161 252.33878117 -216.31719017 255.79320908 C-216.34153913 259.65888796 -216.34196355 263.52437747 -216.34057617 267.39013672 C-216.351362 268.52302628 -216.36214783 269.65591583 -216.3732605 270.82313538 C-216.31031841 287.08548014 -209.42980653 297.49797675 -198.97583008 309.30883789 C-189.43618317 320.09891321 -182.29817562 328.28155724 -182.68359375 343.26171875 C-183.32755551 350.87000771 -186.54815235 356.66930452 -192 362 C-198.10815735 366.03926534 -203.12491554 368.11781101 -210.46965027 368.14044189 C-211.58122498 368.14615204 -212.69279968 368.15186218 -213.83805847 368.15774536 C-215.05318619 368.15886322 -216.2683139 368.15998108 -217.52026367 368.16113281 C-219.44529221 368.16858017 -219.44529221 368.16858017 -221.40921021 368.17617798 C-224.92805995 368.18928047 -228.44689063 368.19574305 -231.96576095 368.20018864 C-234.16693295 368.20312362 -236.36809979 368.20722929 -238.56926918 368.21169281 C-245.46398906 368.22536381 -252.3586971 368.23503168 -259.25342959 368.2388947 C-267.19755566 368.24337073 -275.14150926 368.26089903 -283.08558291 368.2898953 C-289.2352261 368.31155806 -295.38482094 368.32160147 -301.53450185 368.32293582 C-305.20294635 368.32398082 -308.87122866 368.32982297 -312.5396328 368.34775543 C-316.63744834 368.36739733 -320.73490614 368.36292891 -324.83276367 368.35644531 C-326.03777023 368.3656601 -327.24277679 368.37487488 -328.48429871 368.3843689 C-339.05355856 368.3320786 -346.29503453 366.54109294 -354.05078125 359.19140625 C-359.87439016 352.64422269 -361.38716501 345.43477545 -361.2734375 336.87109375 C-360.3383662 327.05284514 -353.35017741 319.82006849 -347.125 312.70703125 C-334.59709203 298.37417142 -326.92159551 286.24683485 -326.82421875 266.8046875 C-326.80103998 265.01951921 -326.77692347 263.23436288 -326.75195312 261.44921875 C-326.71674067 258.6533988 -326.68741898 255.85802735 -326.67407227 253.06201172 C-326.65862116 250.35069863 -326.61846064 247.64066348 -326.57421875 244.9296875 C-326.57612717 244.0942038 -326.57803558 243.25872009 -326.58000183 242.3979187 C-326.49944043 238.5817926 -326.45467593 236.61929894 -324.14770508 233.47705078 C-321.16006329 231.42234658 -319.554041 231.34721696 -316 232 C-313.23889366 234.01278334 -311.30369968 235.61103303 -310.55130005 239.05212402 C-310.38747242 241.57474431 -310.38572248 244.05075085 -310.44140625 246.578125 C-310.44490334 247.9671402 -310.44490334 247.9671402 -310.44847107 249.38421631 C-310.45819774 251.34103621 -310.47996 253.29782839 -310.51293945 255.25439453 C-310.56210323 258.22601788 -310.57440921 261.19597637 -310.58007812 264.16796875 C-310.59417598 266.07553817 -310.61038462 267.9830934 -310.62890625 269.890625 C-310.63426895 270.76906067 -310.63963165 271.64749634 -310.64515686 272.55255127 C-311.0344419 293.10532986 -321.12251155 307.75643544 -334.34375 322.61083984 C-342.40631427 331.37840069 -342.40631427 331.37840069 -344.43359375 342.69140625 C-343.81637973 345.97765389 -342.44357617 347.77203349 -340 350 C-337.44271011 351.27864494 -335.63930959 351.12874592 -332.775177 351.13371277 C-331.66753998 351.13797775 -330.55990295 351.14224274 -329.41870117 351.14663696 C-328.19787842 351.14618378 -326.97705566 351.14573059 -325.71923828 351.14526367 C-324.43790009 351.14862228 -323.15656189 351.1519809 -321.83639526 351.15544128 C-318.31569149 351.16429158 -314.79501201 351.16661985 -311.27429819 351.16725707 C-308.33691426 351.16820557 -305.39953602 351.17188324 -302.46215427 351.17542917 C-295.53222102 351.18357787 -288.60230077 351.18601305 -281.67236328 351.18530273 C-274.52078088 351.18470203 -267.36927392 351.19525148 -260.21771061 351.2110464 C-254.08092459 351.22411775 -247.94416323 351.22948679 -241.80736339 351.22884732 C-238.14076582 351.22859219 -234.47423525 351.23145181 -230.80765152 351.24202538 C-226.71823207 351.25349577 -222.62898183 351.24896203 -218.53955078 351.24291992 C-217.32277649 351.24853943 -216.1060022 351.25415894 -214.85235596 351.25994873 C-213.73907928 351.25575424 -212.62580261 351.25155975 -211.47879028 351.24723816 C-210.5116617 351.24778293 -209.54453312 351.24832769 -208.54809761 351.24888897 C-205.84955978 350.98530554 -204.26201628 350.47542935 -202 349 C-199.14327951 344.61289353 -198.19487819 341.18856274 -199 336 C-200.909663 332.43046115 -203.67191335 329.52555152 -206.31689453 326.48730469 C-219.33849626 311.52330297 -233.05070105 295.56263372 -233.14717102 274.59318542 C-233.15432632 273.52086166 -233.16148163 272.4485379 -233.16885376 271.34371948 C-233.17154266 270.17736969 -233.17423157 269.0110199 -233.17700195 267.80932617 C-233.18357315 266.57298935 -233.19014435 265.33665253 -233.19691467 264.06285095 C-233.2166203 259.97288772 -233.2283083 255.88296362 -233.23828125 251.79296875 C-233.24233139 250.381254 -233.24644839 248.96953945 -233.25063133 247.55782509 C-233.26966433 240.92527667 -233.28390053 234.29273927 -233.2922433 227.66016883 C-233.30201552 220.01878987 -233.32834231 212.37770059 -233.36874419 204.73642367 C-233.39894973 198.81947153 -233.41371627 192.90260226 -233.41702431 186.98557454 C-233.41936929 183.4562827 -233.42825738 179.92730101 -233.45348549 176.39809227 C-233.4811964 172.45825394 -233.47692147 168.51879427 -233.4699707 164.57885742 C-233.48278076 163.41858032 -233.49559082 162.25830322 -233.50878906 161.06286621 C-233.4608682 153.60413444 -232.66056643 147.70779954 -227.18359375 142.16015625 C-226.60738281 141.79792969 -226.03117188 141.43570313 -225.4375 141.0625 C-224.56931641 140.49208984 -224.56931641 140.49208984 -223.68359375 139.91015625 C-220.51830765 138.1989923 -217.88948894 137.86983158 -214.3651886 137.84609985 C-212.93752419 137.83319916 -212.93752419 137.83319916 -211.48101807 137.82003784 C-210.43838806 137.81577789 -209.39575806 137.81151794 -208.3215332 137.80712891 C-207.22203842 137.79895142 -206.12254364 137.79077393 -204.98973083 137.78234863 C-201.34341986 137.7574937 -197.69714784 137.74097774 -194.05078125 137.7265625 C-192.18331773 137.71857698 -192.18331773 137.71857698 -190.27812767 137.71043015 C-185.04437377 137.68920021 -179.81062572 137.670071 -174.5768404 137.65880775 C-167.08928556 137.64258579 -159.60225103 137.60944759 -152.1148923 137.55240691 C-146.20692761 137.50894188 -140.29907815 137.49305299 -134.39095116 137.48667526 C-131.8827564 137.47996086 -129.37456927 137.46473409 -126.86647987 137.44078445 C-123.3523988 137.40914481 -119.83962575 137.4090953 -116.32543945 137.41650391 C-115.2929306 137.40009857 -114.26042175 137.38369324 -113.19662476 137.36679077 C-106.58969785 137.42369211 -102.05611327 138.61517917 -97 143 C-93.96406901 146.46755603 -91.94668412 149.44595113 -91 154 C-90.18917969 153.31035156 -89.37835938 152.62070312 -88.54296875 151.91015625 C-82.35114962 146.65238283 -76.12666796 141.44468521 -69.8203125 136.32421875 C-67.77389359 134.63776549 -65.75110296 132.93696345 -63.7421875 131.20703125 C-44.32539022 114.49358887 -44.32539022 114.49358887 -30.375 114.66796875 C-25.44993672 115.15249465 -21.38628989 116.78461221 -17 119 C-16.34 119.33 -15.68 119.66 -15 120 C-14.99945523 119.40677602 -14.99891047 118.81355204 -14.99834919 118.20235157 C-14.98337736 103.7632489 -14.94091447 89.32442029 -14.86790943 74.88549519 C-14.83326634 67.90287602 -14.80790484 60.92045413 -14.80444336 53.93774414 C-14.80107757 47.20076215 -14.77178085 40.46435147 -14.72656822 33.72749901 C-14.71356447 31.15548783 -14.70929564 28.58341736 -14.71384621 26.01137733 C-14.71873135 22.41239269 -14.69274891 18.81486963 -14.65942383 15.21606445 C-14.67236229 13.61600052 -14.67236229 13.61600052 -14.68556213 11.98361206 C-14.57328072 4.76442756 -14.57328072 4.76442756 -11.64628601 0.86149597 C-7.14629508 -2.30396497 -4.95119174 -2.21223461 0 0 Z " fill="#020202" transform="translate(389,129)"/>
<path d="M0 0 C62.7 0 125.4 0 190 0 C190 40.92 190 81.84 190 124 C170.2 124 150.4 124 130 124 C129.96132813 114.68394531 129.96132813 114.68394531 129.921875 105.1796875 C129.89670476 101.24214635 129.87037052 97.30468187 129.83984375 93.3671875 C129.79151447 87.11913777 129.74746769 80.87126554 129.72900391 74.62304688 C129.71384592 69.58484006 129.67941535 64.54709795 129.63169098 59.50909805 C129.61686838 57.58824836 129.60895848 55.66733233 129.60811615 53.74642563 C129.60574739 51.05294156 129.57867554 48.36074266 129.54589844 45.66748047 C129.5509288 44.87553787 129.55595917 44.08359528 129.56114197 43.26765442 C129.46349047 38.07176784 128.38206431 35.15182613 125 31 C121.28508835 27.73538067 118.1526909 26.88000735 113.27246094 26.82299805 C112.31426453 26.81016281 111.35606812 26.79732758 110.36883545 26.78410339 C108.81727753 26.77302299 108.81727753 26.77302299 107.234375 26.76171875 C105.63423553 26.74961113 105.63423553 26.74961113 104.00177002 26.73725891 C101.7422447 26.72342293 99.48269852 26.71269861 97.22314453 26.70483398 C93.77726334 26.68763607 90.33234528 26.64374614 86.88671875 26.59960938 C84.69011121 26.5894809 82.49349553 26.58096528 80.296875 26.57421875 C78.75746246 26.54795662 78.75746246 26.54795662 77.18695068 26.52116394 C70.92620593 26.540031 66.98443421 27.07392133 62 31 C58.84657356 35.95074467 58.55734011 39.99076505 58.56762695 45.66748047 C58.5574353 46.51691727 58.54724365 47.36635406 58.53674316 48.24153137 C58.50668454 51.03348447 58.49735816 53.82509405 58.48828125 56.6171875 C58.47142928 58.55918512 58.45327833 60.50117186 58.43388367 62.44314575 C58.38643392 67.54269005 58.356592 72.64219024 58.33044434 77.74188232 C58.30061351 82.95040595 58.25409181 88.15877774 58.20898438 93.3671875 C58.1230084 103.57804549 58.05563767 113.78893478 58 124 C56.75283203 124.05607422 56.75283203 124.05607422 55.48046875 124.11328125 C54.39378906 124.17902344 53.30710937 124.24476563 52.1875 124.3125 C51.10855469 124.37050781 50.02960938 124.42851562 48.91796875 124.48828125 C46.0357677 124.77885495 46.0357677 124.77885495 44.17578125 126.29296875 C42.69398297 128.23077968 42.69398297 128.23077968 42 132 C35.4 132 28.8 132 22 132 C21.01 130.02 20.02 128.04 19 126 C12.95847701 123.986159 6.35592258 124.39724516 0 124 C0 83.08 0 42.16 0 0 Z " fill="#E7ECF1" transform="translate(261,373)"/>
<path d="M0 0 C0.73605469 -0.03738281 1.47210938 -0.07476562 2.23046875 -0.11328125 C8.75920555 0.96331831 13.77440234 5.74035686 18.5625 10 C19.79470077 11.07651993 21.02778266 12.15203209 22.26171875 13.2265625 C23.16543213 14.01595215 23.16543213 14.01595215 24.08740234 14.82128906 C26.47782984 16.8876252 28.92115404 18.88461836 31.375 20.875 C35.39608091 24.14028303 39.36595162 27.45807844 43.3125 30.8125 C47.28153543 34.18533589 51.27267021 37.52426645 55.3125 40.8125 C59.9178325 44.56102646 64.45454444 48.38334246 68.97875977 52.22875977 C72.37204109 55.1079532 75.79517786 57.94454237 79.25 60.75 C84.10569577 64.70099554 88.85641451 68.76334144 93.59667969 72.85107422 C98.19921039 76.81118425 102.87577817 80.66479442 107.60546875 84.47265625 C112.74285317 88.75532539 112.74285317 88.75532539 113.25 92.8125 C112.8125 96.3125 112.8125 96.3125 111.3260498 98.00702 C107.68081224 99.90027261 104.17017811 99.72936922 100.15820312 99.70018005 C99.27556038 99.70556559 98.39291763 99.71095113 97.48352814 99.71649987 C94.52012775 99.7308299 91.55717087 99.7236633 88.59375 99.71655273 C86.47159464 99.72225362 84.34944235 99.72921678 82.22729492 99.73735046 C76.45880809 99.75532697 70.690473 99.75410517 64.92196655 99.74840808 C60.11053618 99.74532307 55.29913524 99.75140092 50.48770905 99.75744683 C39.14021874 99.77150487 27.7928037 99.76991978 16.4453125 99.75854492 C4.72775031 99.74705887 -6.98958313 99.76114477 -18.70711517 99.7879414 C-28.75899623 99.81007056 -38.81080535 99.81674216 -48.86270905 99.81086498 C-54.87003556 99.80748797 -60.87721538 99.80995998 -66.88452148 99.82711601 C-72.53164254 99.84253896 -78.17842361 99.8386813 -83.82553101 99.81981087 C-85.90082736 99.81611225 -87.97614866 99.81927026 -90.05142212 99.82969666 C-92.87907902 99.84282109 -95.70559612 99.83143527 -98.53320312 99.81370544 C-99.77230061 99.82811295 -99.77230061 99.82811295 -101.03643036 99.84281152 C-104.63245298 99.79624614 -106.75816506 99.62829314 -109.69592285 97.46745396 C-111.74625103 94.50524524 -111.79475727 92.84189749 -111.1875 89.3125 C-109.38671875 87.07421875 -109.38671875 87.07421875 -106.875 85 C-105.9571875 84.22785156 -105.039375 83.45570313 -104.09375 82.66015625 C-103.1346875 81.88542969 -102.175625 81.11070312 -101.1875 80.3125 C-100.3109375 79.58933594 -99.434375 78.86617188 -98.53125 78.12109375 C-96.72828945 76.63895412 -94.91947349 75.16391437 -93.10546875 73.6953125 C-89.93332593 71.10494152 -86.80706706 68.46567133 -83.6875 65.8125 C-78.83810094 61.69125818 -73.93588629 57.64258186 -69 53.625 C-65.86950334 51.05103608 -62.77577539 48.43680914 -59.6875 45.8125 C-54.83790619 41.69148366 -49.93589194 37.64258646 -45 33.625 C-41.86950241 31.05103532 -38.77580952 28.43677006 -35.6875 25.8125 C-30.8258024 21.68216399 -25.91825675 17.61495732 -20.96875 13.58984375 C-18.93742917 11.92655718 -16.91730826 10.25383918 -14.90625 8.56640625 C-14.35912354 8.10758057 -13.81199707 7.64875488 -13.24829102 7.17602539 C-11.70457108 5.87933779 -10.16277934 4.58035567 -8.62109375 3.28125 C-5.54239248 0.79061526 -3.88572244 0.12707182 0 0 Z " fill="#FD95A9" transform="translate(355.1875,258.6875)"/>
<path d="M0 0 C1.34485044 -0.00679031 2.68969156 -0.01570132 4.03451538 -0.02655029 C7.65868168 -0.04918328 11.28212971 -0.04057473 14.90630722 -0.02465487 C18.71595816 -0.01191198 22.52555148 -0.02375909 26.33520508 -0.03158569 C32.73041721 -0.04065805 39.12533974 -0.0287582 45.52050781 -0.00488281 C52.89274081 0.02232411 60.2642822 0.01350821 67.63649845 -0.01401484 C73.98930522 -0.0367742 80.34190494 -0.03987284 86.69473934 -0.02682149 C90.4788692 -0.01906426 94.26267498 -0.01788154 98.04678345 -0.03450394 C101.60615709 -0.04904969 105.16464739 -0.03874609 108.72392654 -0.01003265 C110.63750272 -0.00037078 112.55115446 -0.01503555 114.46469116 -0.03067017 C123.09553914 0.07419221 130.01420049 1.64154631 136.49528503 7.62125206 C142.53451522 14.00662958 144.51467279 19.25606807 144.85546875 27.95947266 C144.49022841 40.81845146 137.87785141 47.67182913 129.71875 56.85009766 C126.6966292 60.2513807 123.71647851 63.67118969 120.85546875 67.20947266 C120.10265625 68.11826172 119.34984375 69.02705078 118.57421875 69.96337891 C110.4223071 82.29810707 110.67842471 95.35692262 110.8671875 109.57666016 C110.87653301 111.66414537 110.88364088 113.75164167 110.8886261 115.83914185 C110.90755912 121.28744714 110.95653946 126.73506756 111.012146 132.18310547 C111.06363658 137.76081075 111.08620334 143.33862857 111.11132812 148.91650391 C111.16467341 159.82695821 111.249817 170.7369081 111.35546875 181.64697266 C112.11690186 181.66155518 112.87833496 181.6761377 113.6628418 181.69116211 C117.12338763 181.76577807 120.5829832 181.86239524 124.04296875 181.95947266 C125.84024414 181.99331055 125.84024414 181.99331055 127.67382812 182.02783203 C128.83076172 182.06328125 129.98769531 182.09873047 131.1796875 182.13525391 C132.24276123 182.16143799 133.30583496 182.18762207 134.40112305 182.21459961 C137.73716917 182.7028351 139.65035646 183.66286404 142.35546875 185.64697266 C144.13897681 188.59363814 144.53196906 189.90567135 143.73046875 193.27197266 C142.15502779 195.99318885 141.06072905 197.05254891 138.35546875 198.64697266 C135.24267578 199.03515625 135.24267578 199.03515625 131.61328125 199.04541016 C130.29972656 199.04927734 128.98617187 199.05314453 127.6328125 199.05712891 C126.9507373 199.05084473 126.26866211 199.04456055 125.56591797 199.03808594 C123.49379036 199.02207559 121.42362839 199.03792031 119.3515625 199.05712891 C118.03542969 199.05326172 116.71929687 199.04939453 115.36328125 199.04541016 C113.56334717 199.04033447 113.56334717 199.04033447 111.72705078 199.03515625 C105.43901821 198.31119015 101.41600579 195.36597516 97.35546875 190.64697266 C94.08887563 185.44391424 93.92560353 181.20008639 93.96728516 175.25195312 C93.9620282 174.32425613 93.95677124 173.39655914 93.95135498 172.44075012 C93.93818085 169.38171409 93.9468884 166.32320128 93.95703125 163.26416016 C93.95500875 161.12671815 93.95209584 158.98927681 93.94833374 156.85183716 C93.94391301 152.3713728 93.95032968 147.89108799 93.96435547 143.41064453 C93.9813849 137.69473781 93.97164411 131.97925568 93.95363808 126.26336479 C93.94274036 121.84671903 93.946275 117.43017202 93.95402145 113.0135231 C93.95601018 110.90779697 93.95361131 108.80206162 93.94658279 106.69634628 C93.88487368 82.99747243 99.21852627 67.48499529 114.82470703 49.48852539 C123.95658431 39.82936461 123.95658431 39.82936461 128.98046875 27.95947266 C128.22241415 23.94178327 127.01886458 21.74227052 124.35546875 18.64697266 C120.77656812 16.85722741 117.86651942 16.39495775 113.89050293 16.38627625 C112.80542953 16.37919144 111.72035614 16.37210663 110.60240173 16.36480713 C108.83178123 16.36852325 108.83178123 16.36852325 107.02539062 16.37231445 C105.77448135 16.36720352 104.52357208 16.36209259 103.23475647 16.35682678 C99.81119233 16.34531883 96.3878705 16.34285539 92.96430397 16.34539008 C90.10390255 16.34646112 87.24352338 16.34157316 84.38312674 16.33678466 C77.63479536 16.32569793 70.88651966 16.3252477 64.13818359 16.33129883 C57.18021186 16.33734201 50.22244217 16.32501708 43.26450491 16.30372876 C37.28559376 16.28610961 31.30674692 16.28011179 25.32781076 16.2833665 C21.75900685 16.28517864 18.19034714 16.28255003 14.62156677 16.26865196 C10.64281282 16.2537362 6.66431614 16.26304653 2.68554688 16.2746582 C1.50513321 16.26701447 0.32471954 16.25937073 -0.89146423 16.25149536 C-2.51907433 16.26201683 -2.51907433 16.26201683 -4.17956543 16.27275085 C-5.58984638 16.27249924 -5.58984638 16.27249924 -7.02861786 16.27224255 C-10.20683094 16.7275222 -12.06086435 17.76406374 -14.64453125 19.64697266 C-16.75126696 22.80707623 -16.96341182 23.8060979 -17.01953125 27.45947266 C-17.06207031 28.70664062 -17.06207031 28.70664062 -17.10546875 29.97900391 C-16.00797027 36.3314739 -10.56155356 41.16230174 -6.39453125 45.83447266 C8.10609065 62.37094615 16.50699866 76.74410519 16.50263977 99.03509521 C16.50631646 100.05591289 16.50999315 101.07673056 16.51378125 102.1284821 C16.52475947 105.53536695 16.52865179 108.94222125 16.5324707 112.34912109 C16.53873932 114.79698278 16.54538647 117.24484353 16.55238342 119.69270325 C16.57155291 127.02203587 16.58219761 134.35136038 16.59111121 141.68071067 C16.59550269 145.13499342 16.60086678 148.58927466 16.60610008 152.04355621 C16.62309436 163.52686113 16.63759243 175.01016513 16.64484882 186.49348068 C16.64675855 189.46733349 16.64867892 192.44118629 16.65063477 195.41503906 C16.65111851 196.15412889 16.65160225 196.89321871 16.65210065 197.6547052 C16.6604163 209.65018171 16.685787 221.64555902 16.71821544 233.64099213 C16.751255 245.96292194 16.76929425 258.28480118 16.77249306 270.60677552 C16.77465967 277.52284307 16.78343164 284.43876536 16.80895424 291.35478973 C16.83287809 297.85222425 16.83650677 304.34944364 16.82619286 310.84692955 C16.82569521 313.23507494 16.83208252 315.62323285 16.8457489 318.01133919 C16.86332386 321.26347337 16.85643268 324.5146515 16.84321594 327.76678467 C16.85418519 328.71852247 16.86515443 329.67026027 16.87645608 330.65083861 C16.81373401 337.01300266 16.81373401 337.01300266 14.5085783 340.20198441 C11.65984265 342.1138191 9.79460775 342.64697266 6.35546875 342.64697266 C3.70275307 341.25805664 3.70275307 341.25805664 1.35546875 338.64697266 C0.60315334 335.39580695 0.69149396 332.19404647 0.73641968 328.86962891 C0.7301807 327.86604056 0.72394172 326.86245222 0.71751368 325.82845211 C0.70255519 322.45506143 0.72326915 319.08282136 0.74365234 315.70947266 C0.74011252 313.29488209 0.73433653 310.8802939 0.72648621 308.4657135 C0.71428715 303.25953737 0.71718056 298.05359839 0.73331833 292.84744263 C0.75640041 285.30715811 0.74907006 277.76713678 0.73378713 270.22684348 C0.70950485 257.97607635 0.70531225 245.72539338 0.71582031 233.47460938 C0.71675605 232.3747012 0.71675605 232.3747012 0.71771069 231.25257266 C0.71898192 229.76867821 0.72025616 228.28478376 0.7215334 226.80088931 C0.72216578 226.06534279 0.72279816 225.32979626 0.72344971 224.57196045 C0.72440693 223.46781289 0.72440693 223.46781289 0.72538348 222.34135932 C0.73217763 214.1816749 0.73418027 206.0219917 0.734375 197.86230469 C0.73440925 196.76737642 0.73440925 196.76737642 0.73444419 195.6503284 C0.73437481 183.45503425 0.72230812 171.25977196 0.70341551 159.06449318 C0.69248179 151.54959756 0.69323394 144.03486969 0.70935525 136.5199824 C0.72111304 130.75071086 0.71802935 124.98152195 0.70972633 119.21224785 C0.70891854 116.85327182 0.71323518 114.49428736 0.72316933 112.13533211 C0.82081811 87.75935333 -3.71707998 73.68325799 -20.10400391 55.37158203 C-28.22986754 46.27473565 -34.56635806 38.10208542 -34.02734375 25.38134766 C-32.93800296 17.60034199 -29.55110312 10.83786367 -23.64453125 5.64697266 C-16.01392999 0.46995147 -9.02612594 -0.07374825 0 0 Z " fill="#000001" transform="translate(61.64453125,-0.64697265625)"/>
<path d="M0 0 C1.15357498 -0.00997513 2.30714996 -0.01995026 3.49568176 -0.03022766 C4.75239685 -0.03089233 6.00911194 -0.03155701 7.3039093 -0.03224182 C8.64801491 -0.03986803 9.99211618 -0.04829632 11.33621216 -0.0574646 C14.98110786 -0.07937577 18.62591967 -0.08820434 22.27087379 -0.09329104 C24.55163354 -0.09693974 26.83237151 -0.10318257 29.11312294 -0.11029243 C37.08037399 -0.13477876 45.04756005 -0.14783629 53.0148468 -0.15138245 C60.4238425 -0.15501331 67.83242283 -0.1848782 75.2412917 -0.22678703 C81.61518341 -0.26156831 87.98893803 -0.27693226 94.36292392 -0.27762848 C98.16395429 -0.27841888 101.96456166 -0.28704648 105.76549339 -0.31562614 C109.34523303 -0.34194085 112.92420309 -0.34393871 116.5039959 -0.3279705 C118.4296086 -0.32531207 120.35520721 -0.34725005 122.28068542 -0.37016296 C130.94575935 -0.29770895 137.86178606 1.24221879 144.3662672 7.25008488 C150.3552266 13.57486119 153.19770329 20.58619636 153.227005 29.27415466 C152.31731243 40.52665627 145.29674357 48.43251493 137.88716125 56.35618591 C125.74650271 69.67347215 119.33049281 81.42974764 118.80122375 99.68040466 C118.15129263 103.7480008 117.19269989 105.45754319 114.227005 108.27415466 C110.727005 108.83665466 110.727005 108.83665466 107.227005 108.27415466 C104.86203061 106.40706962 103.56669785 104.95354035 102.227005 102.27415466 C100.78462244 85.74586919 105.40220119 69.69722785 115.99653625 56.80931091 C118.01079305 54.4385369 120.06994214 52.11088527 122.1410675 49.78977966 C125.22740065 46.32081113 128.09602344 42.71252519 130.914505 39.02415466 C131.33643127 38.47501404 131.75835754 37.92587341 132.19306946 37.36009216 C135.40363392 33.13915402 136.58721062 30.74737865 136.508255 25.30931091 C136.05709801 22.04468878 134.60822636 20.46230402 132.227005 18.27415466 C128.62495545 16.52782053 125.74610384 16.02215733 121.76203918 16.01345825 C120.67696579 16.00637344 119.5918924 15.99928864 118.47393799 15.99198914 C116.70331749 15.99570526 116.70331749 15.99570526 114.89692688 15.99949646 C113.64601761 15.99438553 112.39510834 15.9892746 111.10629272 15.98400879 C107.68272858 15.97250083 104.25940676 15.9700374 100.83584023 15.97257209 C97.97543881 15.97364313 95.11505964 15.96875516 92.25466299 15.96396667 C85.50633162 15.95287993 78.75805592 15.95242971 72.00971985 15.95848083 C65.05174812 15.96452402 58.09397843 15.95219908 51.13604116 15.93091077 C45.15713002 15.91329162 39.17828317 15.9072938 33.19934702 15.91054851 C29.6305431 15.91236065 26.0618834 15.90973204 22.49310303 15.89583397 C18.51434907 15.88091821 14.5358524 15.89022853 10.55708313 15.90184021 C9.37666946 15.89419647 8.1962558 15.88655273 6.98007202 15.87867737 C5.35246193 15.88919884 5.35246193 15.88919884 3.69197083 15.89993286 C2.28168987 15.89968125 2.28168987 15.89968125 0.8429184 15.89942455 C-2.30895544 16.3509311 -4.19558957 17.43569874 -6.772995 19.27415466 C-9.47927242 23.3335708 -9.62260613 27.56195957 -8.772995 32.27415466 C-7.25504781 35.3550729 -5.05409713 37.7254372 -2.772995 40.27415466 C24.22502707 71.10615613 24.22502707 71.10615613 24.38763428 88.57365417 C24.3976799 89.42583527 24.40772552 90.27801636 24.41807556 91.15602112 C24.42390656 92.08284698 24.42973755 93.00967285 24.43574524 93.96458435 C24.44552902 94.94718231 24.45531281 95.92978027 24.46539307 96.94215393 C24.49530357 100.19343213 24.51671967 103.44466936 24.53559875 106.69602966 C24.54217058 107.80769753 24.54874241 108.91936539 24.55551338 110.06472015 C24.58808679 115.9483208 24.61254351 121.83190348 24.6320343 127.71556091 C24.64985099 132.58106333 24.68468104 137.44598661 24.73457336 142.31126404 C24.79478829 148.1903659 24.8255117 154.06893056 24.83520699 159.94832611 C24.84375951 162.18581138 24.86257246 164.42328238 24.89195061 166.66059113 C24.93091257 169.79641121 24.93189323 172.93014168 24.92402649 176.06614685 C24.9540274 177.44424026 24.9540274 177.44424026 24.9846344 178.85017395 C24.90931493 185.55959276 22.90048886 189.48017274 18.227005 194.27415466 C12.15794258 199.09922405 6.42794287 198.85942963 -1.12846375 198.80540466 C-2.89725639 198.81114502 -2.89725639 198.81114502 -4.70178223 198.81700134 C-7.1854081 198.81971529 -9.66906281 198.81239054 -12.15263367 198.79563904 C-15.95837239 198.77416664 -19.76223548 198.79548983 -23.56791687 198.82102966 C-25.98393666 198.81838742 -28.39995529 198.81326459 -30.81596375 198.80540466 C-31.9545433 198.81350159 -33.09312286 198.82159851 -34.26620483 198.8299408 C-35.85354179 198.81102783 -35.85354179 198.81102783 -37.47294617 198.79173279 C-38.86690865 198.78695923 -38.86690865 198.78695923 -40.28903198 198.78208923 C-43.55232705 198.11479251 -44.73082897 196.85904981 -46.772995 194.27415466 C-48.35287665 188.37592981 -48.35287665 188.37592981 -46.522995 184.89915466 C-43.56358991 182.15113566 -40.69892366 182.13682847 -36.84257507 182.0688324 C-35.84176407 182.04888718 -34.84095306 182.02894196 -33.80981445 182.00839233 C-32.73160934 181.99167984 -31.65340424 181.97496735 -30.54252625 181.95774841 C-29.43696884 181.93696732 -28.33141144 181.91618622 -27.19235229 181.89477539 C-23.65679709 181.82933134 -20.12116693 181.77041863 -16.585495 181.71165466 C-14.19030492 181.66846457 -11.79512245 181.62485012 -9.39994812 181.58079529 C-3.52437657 181.47365519 2.35126972 181.3718791 8.227005 181.27415466 C8.29672027 169.59924471 8.34992528 157.92438483 8.38244152 146.24930859 C8.39805292 140.82725829 8.41920812 135.40535112 8.45332336 129.98338318 C8.4860787 124.74436359 8.50389201 119.5054811 8.51163673 114.26636696 C8.51715132 112.27422747 8.5279195 110.28209491 8.54419518 108.29001427 C8.68794802 89.95493781 6.65713543 75.67429727 -6.37065125 61.84446716 C-26.46394679 40.34627453 -26.46394679 40.34627453 -26.08940125 25.73899841 C-25.12102491 18.19522724 -22.19964713 11.57160079 -16.772995 6.27415466 C-11.33134561 2.19291762 -6.82666268 0.03174546 0 0 Z " fill="#000101" transform="translate(272.7729949951172,-0.2741546630859375)"/>
<path d="M0 0 C2.70894767 -0.08144943 5.41541263 -0.14070614 8.125 -0.1875 C8.88554687 -0.21263672 9.64609375 -0.23777344 10.4296875 -0.26367188 C16.60121446 -0.3434761 20.7181403 0.89828712 25.375 5.1875 C27.52460881 8.90797679 27.96053742 11.8749013 27 16 C24.00057864 22.27048844 19.08305322 27.20449337 14.43359375 32.27734375 C0.92377695 47.39185789 -7.48380959 63.19809068 -7.203125 83.96875 C-7.13609375 84.9690625 -7.0690625 85.969375 -7 87 C-6.93039062 88.12921875 -6.93039062 88.12921875 -6.859375 89.28125 C-6.57578125 89.8484375 -6.2921875 90.415625 -6 91 C-4.02 91.66 -2.04 92.32 0 93 C0 99.6 0 106.2 0 113 C-1.98 113.99 -3.96 114.98 -6 116 C-7.21066677 118.42133354 -7.13793598 119.97602991 -7.15821838 122.68228149 C-7.1680072 123.66948685 -7.17779602 124.6566922 -7.18788147 125.67381287 C-7.19363693 126.76065872 -7.1993924 127.84750458 -7.20532227 128.96728516 C-7.22017166 130.67947487 -7.22017166 130.67947487 -7.23532104 132.42625427 C-7.26700665 136.21383564 -7.29172138 140.00142956 -7.31640625 143.7890625 C-7.33696968 146.40937636 -7.35796598 149.02968685 -7.37937927 151.6499939 C-7.42932354 157.85123767 -7.47425592 164.05250731 -7.51740164 170.2538017 C-7.56675921 177.31299479 -7.62168282 184.3721411 -7.67708123 191.43128896 C-7.79092788 205.95414836 -7.89776107 220.47705431 -8 235 C-9.23363281 234.47599609 -9.23363281 234.47599609 -10.4921875 233.94140625 C-11.60851562 233.48636719 -12.72484375 233.03132812 -13.875 232.5625 C-15.51082031 231.88380859 -15.51082031 231.88380859 -17.1796875 231.19140625 C-21.65724033 229.57786261 -26.28134881 229.31342692 -31 229 C-31.07019131 208.71974377 -31.12303769 188.43951232 -31.15543652 168.15915966 C-31.17088207 158.74188861 -31.19192725 149.3246932 -31.22631836 139.9074707 C-31.25629165 131.69602907 -31.27559179 123.48464223 -31.28226548 115.2731474 C-31.28616434 110.92829273 -31.29527867 106.58359478 -31.31719017 102.23879051 C-31.33768083 98.14220617 -31.34380861 94.04584185 -31.33932304 89.94921112 C-31.34014266 88.45252852 -31.346033 86.95583791 -31.35761642 85.45919991 C-31.51472952 64.09624382 -23.73180012 51.15087676 -9.859375 35.44140625 C-9.32328613 34.82885986 -8.78719727 34.21631348 -8.23486328 33.58520508 C-7.18977466 32.39382941 -6.13648038 31.20958382 -5.07373047 30.03393555 C-0.30292888 24.60724763 2.43915727 19.33233575 2.3125 11.9375 C2.30669922 10.46603516 2.30669922 10.46603516 2.30078125 8.96484375 C1.97395906 5.74331076 1.12864596 3.02621008 0 0 Z " fill="#7AB0FE" transform="translate(383,15)"/>
<path d="M0 0 C0.89589844 0.00322266 1.79179687 0.00644531 2.71484375 0.00976562 C4.12056641 0.02233398 4.12056641 0.02233398 5.5546875 0.03515625 C6.49957031 0.03966797 7.44445312 0.04417969 8.41796875 0.04882812 C10.75527137 0.06063268 13.09244811 0.07709866 15.4296875 0.09765625 C15.10600693 0.83682785 14.78232635 1.57599945 14.44883728 2.33757019 C13.00621338 7.66003614 13.126469 12.76717961 13.12329102 18.2590332 C13.1149675 19.48105942 13.10664398 20.70308563 13.09806824 21.96214294 C13.07813065 25.3058679 13.06733135 28.64934403 13.06224179 31.99310708 C13.05858637 34.09016945 13.05233979 36.18720834 13.0452404 38.2842617 C13.02075419 45.62417005 13.00769876 52.96400799 13.00415039 60.30395508 C13.00053033 67.10448185 12.97074368 73.90455309 12.92874581 80.70494109 C12.89380627 86.57196122 12.87859779 92.43883237 12.87790436 98.30595559 C12.8771186 101.79701401 12.86871217 105.28760944 12.83990669 108.77855873 C12.6206647 137.1025164 17.86922809 155.09716078 36.89208984 176.35400391 C47.23181579 188.07936476 47.23181579 188.07936476 47.7421875 193.28515625 C47.34663628 198.11088111 46.2101855 200.15861742 43.4296875 204.09765625 C40.51757327 205.959663 38.30749836 206.33924829 34.8828125 206.29296875 C33.61630859 206.28330078 33.61630859 206.28330078 32.32421875 206.2734375 C31.45152344 206.25667969 30.57882813 206.23992187 29.6796875 206.22265625 C28.79152344 206.21363281 27.90335938 206.20460938 26.98828125 206.1953125 C24.80180692 206.17180202 22.61588656 206.13894124 20.4296875 206.09765625 C20.91308594 204.55271484 20.91308594 204.55271484 21.40625 202.9765625 C22.35919487 199.62438919 22.75857122 196.53538174 22.8046875 193.03515625 C22.83304688 192.05417969 22.86140625 191.07320312 22.890625 190.0625 C21.9445817 183.97735705 17.29294399 179.61478141 13.3671875 175.09765625 C12.3918033 173.95173297 11.41789115 172.80455539 10.4453125 171.65625 C8.94768884 169.88814113 7.44945326 168.12076609 5.94335938 166.35986328 C-3.58326051 155.14293434 -10.647594 143.79076642 -10.71748352 128.55039978 C-10.72463882 127.47236588 -10.73179413 126.39433197 -10.73916626 125.28363037 C-10.74185516 124.11616272 -10.74454407 122.94869507 -10.74731445 121.74584961 C-10.75388565 120.50454788 -10.76045685 119.26324615 -10.76722717 117.98432922 C-10.78690581 113.88538364 -10.79861274 109.78647701 -10.80859375 105.6875 C-10.81264423 104.27292932 -10.81676124 102.85835883 -10.82094383 101.44378853 C-10.83996367 94.80217281 -10.85420649 88.16056805 -10.8625558 81.51893038 C-10.87234403 73.86055204 -10.89871789 66.2024615 -10.93905669 58.54418463 C-10.96920812 52.61621892 -10.98402336 46.68833587 -10.98733681 40.76029497 C-10.98968659 37.22273065 -10.99863853 33.68547497 -11.02379799 30.14799309 C-11.05139185 26.20525722 -11.04725056 22.26290212 -11.0402832 18.32006836 C-11.05309326 17.15057648 -11.06590332 15.98108459 -11.07910156 14.77615356 C-11.02802431 6.86710572 -11.02802431 6.86710572 -8.66593933 2.89625549 C-5.59664395 0.26199243 -3.95885856 -0.02505607 0 0 Z " fill="#7AB0FE" transform="translate(143.5703125,274.90234375)"/>
<path d="M0 0 C2.87557703 -0.08138426 5.74882262 -0.14067851 8.625 -0.1875 C9.43324219 -0.21263672 10.24148437 -0.23777344 11.07421875 -0.26367188 C16.15654574 -0.32565147 19.60634963 0.15350395 24 3 C26.69296918 6.11817484 27.86096318 8.26310484 28.625 12.3125 C27.16336597 20.93614078 20.32801155 26.92169204 14.58984375 33.1171875 C-2.46527126 52.10161416 -6.48220847 69.42614488 -6.36328125 94.1796875 C-6.36276174 96.32292684 -6.36328295 98.46616665 -6.36479187 100.60940552 C-6.3647026 105.07919519 -6.35436047 109.54880281 -6.33618164 114.01855469 C-6.31341346 119.74153641 -6.31297018 125.46425457 -6.31969929 131.18726921 C-6.32304179 135.60365128 -6.3164052 140.01997344 -6.30657005 144.43634415 C-6.30272883 146.54702567 -6.30156536 148.65771386 -6.3031559 150.76839828 C-6.30352736 153.71405495 -6.29088634 156.65937454 -6.2746582 159.60498047 C-6.27713562 160.47157791 -6.27961304 161.33817535 -6.28216553 162.23103333 C-6.24133399 166.88243377 -5.78273193 170.62347627 -4 175 C-7.22886009 175.11667875 -10.45717445 175.18740546 -13.6875 175.25 C-14.59951172 175.28351563 -15.51152344 175.31703125 -16.45117188 175.3515625 C-20.77608078 175.41447027 -23.29492511 175.41821932 -27.08203125 173.171875 C-29.70420329 170.20257225 -30.12397013 167.82338572 -30.14717102 163.99952698 C-30.15432632 163.18815781 -30.16148163 162.37678864 -30.16885376 161.54083252 C-30.17154266 160.65409851 -30.17423157 159.7673645 -30.17700195 158.85375977 C-30.18357315 157.91674728 -30.19014435 156.9797348 -30.19691467 156.014328 C-30.21665621 152.90668659 -30.22831594 149.79909367 -30.23828125 146.69140625 C-30.24235678 145.62794416 -30.2464323 144.56448208 -30.25063133 143.46879387 C-30.27150171 137.83344593 -30.28579586 132.19812238 -30.29516602 126.56274414 C-30.30619608 120.76264825 -30.340554 114.96293965 -30.38033772 109.16298008 C-30.40659024 104.68716254 -30.41486581 100.21143576 -30.41844749 95.73554802 C-30.42329588 93.59909404 -30.43485949 91.46264363 -30.45348549 89.32626534 C-30.63307232 67.35123358 -25.46196329 54.06474394 -10.85668945 37.57397461 C-0.51615707 26.38202102 -0.51615707 26.38202102 3.25 12.1875 C3.28867188 10.66189453 3.28867188 10.66189453 3.328125 9.10546875 C2.94934105 5.52054927 1.76880096 3.11402064 0 0 Z " fill="#7AB0FE" transform="translate(163,15)"/>
<path d="M0 0 C13.86 0 27.72 0 42 0 C42 10.89 42 21.78 42 33 C37.38 33.33 32.76 33.66 28 34 C24.75415862 36.65061383 24.75415862 36.65061383 24.5625 39.9375 C24.76875 43.56875 24.76875 43.56875 29 47 C33.29 47.33 37.58 47.66 42 48 C42 59.55 42 71.1 42 83 C28.14 83 14.28 83 0 83 C0 55.61 0 28.22 0 0 Z " fill="#F3F6F7" transform="translate(334,414)"/>
<path d="M0 0 C7.59 0 15.18 0 23 0 C23 40.92 23 81.84 23 124 C15.41 124 7.82 124 0 124 C0 83.08 0 42.16 0 0 Z " fill="#D5E3E9" transform="translate(428,373)"/>
<path d="M0 0 C6.77323199 4.28845228 12.19876466 9.34586076 14.68041992 17.1640625 C15.63829577 22.13223777 15.36914115 27.28600159 15.41015625 32.328125 C15.43916016 33.51664062 15.46816406 34.70515625 15.49804688 35.9296875 C15.50642578 37.07179688 15.51480469 38.21390625 15.5234375 39.390625 C15.53802002 40.43347656 15.55260254 41.47632813 15.56762695 42.55078125 C15.09765625 45.328125 15.09765625 45.328125 13.74291992 47.66381836 C9.50719656 50.32878617 5.25267663 49.91845877 0.34765625 49.89453125 C-0.70260742 49.90072983 -1.75287109 49.90692841 -2.83496094 49.91331482 C-5.05402703 49.92041426 -7.27314637 49.91723686 -9.4921875 49.90454102 C-12.89031788 49.89067407 -16.28569594 49.92474794 -19.68359375 49.96289062 C-21.83984442 49.96384179 -23.99609855 49.96198312 -26.15234375 49.95703125 C-27.1690918 49.97028946 -28.18583984 49.98354767 -29.23339844 49.99720764 C-36.20955379 49.90495771 -36.20955379 49.90495771 -39.53662109 47.13476562 C-41.90277469 42.2721804 -41.57985275 37.58848142 -41.52734375 32.265625 C-41.51968994 31.14051514 -41.51203613 30.01540527 -41.50415039 28.85620117 C-41.2276011 18.52944588 -39.24701614 11.18115736 -31.58984375 3.828125 C-22.06713566 -3.1995504 -10.91835193 -5.62760789 0 0 Z " fill="#030202" transform="translate(368.90234375,291.671875)"/>
<path d="M0 0 C0.73605469 -0.03738281 1.47210938 -0.07476562 2.23046875 -0.11328125 C8.75920555 0.96331831 13.77440234 5.74035686 18.5625 10 C19.79470077 11.07651993 21.02778266 12.15203209 22.26171875 13.2265625 C23.16543213 14.01595215 23.16543213 14.01595215 24.08740234 14.82128906 C26.47782984 16.8876252 28.92115404 18.88461836 31.375 20.875 C35.39608091 24.14028303 39.36595162 27.45807844 43.3125 30.8125 C47.28153543 34.18533589 51.27267021 37.52426645 55.3125 40.8125 C59.9178325 44.56102646 64.45454444 48.38334246 68.97875977 52.22875977 C72.37204109 55.1079532 75.79517786 57.94454237 79.25 60.75 C84.10569577 64.70099554 88.85641451 68.76334144 93.59667969 72.85107422 C98.19921039 76.81118425 102.87577817 80.66479442 107.60546875 84.47265625 C112.74285317 88.75532539 112.74285317 88.75532539 113.25 92.8125 C112.8125 96.3125 112.8125 96.3125 111.32773209 98.00870228 C107.6720073 99.90368671 104.15216292 99.71565834 100.13128662 99.67326355 C98.80308911 99.67710846 98.80308911 99.67710846 97.44805932 99.68103105 C94.47527992 99.68598008 91.5030062 99.66945746 88.53027344 99.65307617 C86.4016318 99.65223014 84.27298928 99.65270457 82.14434814 99.65440369 C76.35956916 99.655266 70.57497601 99.63760188 64.79024029 99.61668181 C58.74707158 99.59795445 52.70389882 99.59616768 46.66070557 99.59260559 C35.21435697 99.58327354 23.76809411 99.55864402 12.3217833 99.52855712 C-0.70827924 99.49504923 -13.73834583 99.47853618 -26.76844072 99.46347082 C-53.57484139 99.43209552 -80.3811659 99.37931244 -107.1875 99.3125 C-107.1875 98.9825 -107.1875 98.6525 -107.1875 98.3125 C-42.8375 98.3125 21.5125 98.3125 87.8125 98.3125 C88.33848192 88.79418806 88.33848192 88.79418806 83.8125 82.3125 C81.71477587 80.25671637 79.51661676 78.3665711 77.25 76.5 C76.62939697 75.97865479 76.00879395 75.45730957 75.36938477 74.92016602 C70.81077715 71.10170997 66.20602914 67.33837609 61.58984375 63.58984375 C57.90490857 60.56830056 54.27681679 57.48214049 50.64599609 54.39599609 C47.25276525 51.51692157 43.8297328 48.68038508 40.375 45.875 C35.51200576 41.91806582 30.75549797 37.84814058 26.00634766 33.75634766 C21.59831912 29.96614299 17.12428791 26.26714886 12.60546875 22.609375 C10.54252177 20.91285357 8.50848589 19.19913831 6.48828125 17.453125 C5.91859619 16.96271729 5.34891113 16.47230957 4.76196289 15.96704102 C3.66707242 15.02188991 2.57608571 14.07218802 1.48999023 13.11694336 C-2.17175091 9.96243626 -5.93088583 7.60657975 -10.1875 5.3125 C-6.76578237 1.77672511 -4.94972889 0.16186721 0 0 Z " fill="#F2788F" transform="translate(355.1875,258.6875)"/>
<path d="M0 0 C6.6 0 13.2 0 20 0 C20 16.83 20 33.66 20 51 C16.92300571 49.46150285 15.09566228 48.39317097 12.6171875 46.21484375 C12.00746094 45.68439453 11.39773438 45.15394531 10.76953125 44.60742188 C10.14433594 44.05634766 9.51914062 43.50527344 8.875 42.9375 C7.62398515 41.8406326 6.37144995 40.74549606 5.1171875 39.65234375 C4.56659668 39.16757568 4.01600586 38.68280762 3.44873047 38.18334961 C1.99022263 36.90366815 1.99022263 36.90366815 0 36 C0 24.12 0 12.24 0 0 Z " fill="#E7ECF1" transform="translate(427,259)"/>
<path d="M0 0 C3.91857679 2.07019151 6.76988614 4.16212964 9 8 C9.39853734 12.69742683 9.13120849 17.27649444 9 22 C0.42 22 -8.16 22 -17 22 C-17 7.10810811 -17 7.10810811 -13 3 C-9.05913462 -0.28405449 -4.98857772 -0.89011877 0 0 Z " fill="#F1F4F5" transform="translate(360,304)"/>
<path d="M0 0 C0.33 0 0.66 0 1 0 C0.90976562 1.30453125 0.81953125 2.6090625 0.7265625 3.953125 C0.18764281 14.77820078 0.18764281 14.77820078 5.11328125 23.96484375 C9.0236769 27.49371244 13.27899074 30.63949537 18 33 C18.33 22.11 18.66 11.22 19 0 C19.33 0 19.66 0 20 0 C20 16.83 20 33.66 20 51 C16.92300571 49.46150285 15.09566228 48.39317097 12.6171875 46.21484375 C12.00746094 45.68439453 11.39773438 45.15394531 10.76953125 44.60742188 C10.14433594 44.05634766 9.51914062 43.50527344 8.875 42.9375 C7.62398515 41.8406326 6.37144995 40.74549606 5.1171875 39.65234375 C4.56659668 39.16757568 4.01600586 38.68280762 3.44873047 38.18334961 C1.99022263 36.90366815 1.99022263 36.90366815 0 36 C0 24.12 0 12.24 0 0 Z " fill="#C3CED4" transform="translate(427,259)"/>
</svg>
